<?xml version="1.0" encoding="utf-8"?>
<!-- Generator: Adobe Illustrator 24.0.0, SVG Export Plug-In . SVG Version: 6.00 Build 0)  -->
<svg version="1.1" id="Layer_1" xmlns="http://www.w3.org/2000/svg" xmlns:xlink="http://www.w3.org/1999/xlink" x="0px" y="0px"
	 viewBox="0 0 146 64" style="enable-background:new 0 0 146 64;" xml:space="preserve">
<style type="text/css">
	.st0{fill:#0074A2;}
	.st1{fill:#A20067;}
	.st2{fill:none;}
</style>
<g>
	<g>
		<g>
			<g>
				<path class="st0" d="M11.8,62.6c0,0.3-0.2,0.5-0.5,0.5H3.9c-0.1,0-0.3,0-0.4-0.1s-0.1-0.2-0.1-0.3V26.3c0-0.1,0-0.3,0.1-0.4
					s0.2-0.1,0.4-0.1h7.4c0.3,0,0.5,0.2,0.5,0.5V62.6z"/>
				<path class="st0" d="M16.2,26.5c-0.1-0.2-0.1-0.3,0-0.5c0.1-0.1,0.2-0.2,0.4-0.2h5.8c1.7,0,2.9,0.8,3.6,2.4l9,20.4L45,26.1
					c0.1-0.2,0.2-0.3,0.4-0.3h8.1c0.2,0,0.3,0.1,0.4,0.2c0.1,0.1,0.1,0.3,0,0.5L38.3,62.1c-0.5,1.2-1.6,1.8-3.2,1.8
					c-1.6,0-2.7-0.6-3.2-1.8L16.2,26.5z"/>
				<path class="st0" d="M92.3,62.6c0,0.3-0.2,0.5-0.5,0.5h-2c-2.3,0-4.1-1-5.2-3.1c-3.1,2.7-6.8,4-11.1,4c-5.4,0-10-1.9-13.8-5.7
					c-3.8-3.8-5.7-8.4-5.7-13.8s1.9-10,5.7-13.8c3.8-3.8,8.4-5.7,13.8-5.7c4.3,0,8,1.3,11.1,4c1.1-2.1,2.8-3.1,5.2-3.1h2
					c0.3,0,0.5,0.2,0.5,0.5C92.3,26.3,92.3,62.6,92.3,62.6z M62.3,44.4c0,3.1,1.1,5.7,3.3,7.9c2.2,2.2,4.8,3.3,7.9,3.3
					c3.1,0,5.7-1.1,7.9-3.3c2.2-2.2,3.3-4.8,3.3-7.9s-1.1-5.7-3.3-7.9c-2.2-2.2-4.8-3.3-7.9-3.3c-3.1,0-5.7,1.1-7.9,3.3
					C63.4,38.7,62.3,41.3,62.3,44.4"/>
				<path class="st0" d="M106.9,62.6c0,0.3-0.2,0.5-0.5,0.5h-7.4c-0.3,0-0.5-0.2-0.5-0.5V38.1c0-4,1.3-7.2,3.8-9.6
					c2.5-2.4,5.8-3.6,9.8-3.6c1.4,0,2.8,0.2,4.1,0.5c0.2,0.1,0.4,0.2,0.4,0.5v8c0,0.2-0.1,0.4-0.3,0.4c-0.2,0.1-0.4,0.1-0.5-0.1
					c-0.9-0.7-2.1-1-3.7-1c-1.8,0-3.1,0.4-4,1.3c-0.8,0.8-1.2,2-1.2,3.6C106.9,38.1,106.9,62.6,106.9,62.6z"/>
				<path class="st0" d="M130.1,62.6c0,0.3-0.2,0.5-0.5,0.5h-7.4c-0.1,0-0.3,0-0.4-0.1s-0.1-0.2-0.1-0.3V26.3c0-0.1,0-0.3,0.1-0.4
					s0.2-0.1,0.4-0.1h7.4c0.3,0,0.5,0.2,0.5,0.5V62.6z"/>
				<path class="st0" d="M136,26.5h-1.5c0,0-0.1,0-0.1-0.1v-0.9c0,0,0-0.1,0.1-0.1h3.9c0,0,0.1,0,0.1,0.1v0.6c0,0.1,0,0.2-0.1,0.2
					c-0.1,0.1-0.1,0.1-0.2,0.1H137v4.7c0,0,0,0.1-0.1,0.1h-0.9c0,0-0.1,0-0.1-0.1L136,26.5L136,26.5z"/>
				<path class="st0" d="M140.6,27.6v3.6c0,0,0,0.1-0.1,0.1h-0.9c0,0-0.1,0-0.1-0.1v-5.5c0-0.2,0.1-0.3,0.2-0.3
					c0.1-0.1,0.3,0,0.4,0.1l2.5,3.1l2.5-3.1c0.1-0.1,0.2-0.2,0.4-0.1c0.1,0.1,0.2,0.2,0.2,0.3v5.5c0,0,0,0.1-0.1,0.1h-0.6
					c-0.1,0-0.2,0-0.2-0.1c-0.1-0.1-0.1-0.1-0.1-0.2v-3.3l-2,2.5c0,0,0,0,0,0c0,0,0,0,0,0L140.6,27.6z"/>
				<path class="st1" d="M6.9,15.6c0-0.2,0.2-0.4,0.4-0.4h0.3c4.2,0,7.6-3.4,7.6-7.6c0-4.2-3.4-7.6-7.6-7.6C7.2,0,6.8,0,6.4,0.1
					C2.8,0.6,0,3.8,0,7.6c0,6.1,3.6,11.3,8.7,13.7c0,0,0.1,0,0.1,0c0.2,0.1,0.4,0.1,0.6,0.1c0.8,0,1.5-0.7,1.5-1.5
					c0-0.5-0.2-0.9-0.6-1.1c-0.1-0.1-2.3-1.6-3.3-3c0,0,0,0,0,0C6.9,15.8,6.9,15.7,6.9,15.6"/>
				<path class="st1" d="M126.6,5.9c0,0.2-0.2,0.4-0.4,0.4l-0.3,0c-4.2,0-7.6,3.4-7.6,7.6c0,4.2,3.4,7.6,7.6,7.6
					c0.4,0,0.8,0,1.1-0.1c3.6-0.5,6.4-3.7,6.4-7.5c0-6.1-3.6-11.3-8.7-13.7c0,0-0.1,0-0.1,0C124.5,0,124.3,0,124.1,0
					c-0.8,0-1.5,0.7-1.5,1.5c0,0.5,0.2,0.9,0.6,1.1c0.1,0.1,2.3,1.6,3.3,3c0,0,0,0,0,0C126.5,5.6,126.6,5.7,126.6,5.9"/>
			</g>
		</g>
	</g>
	<rect class="st2" width="146" height="64"/>
</g>
<g>
	<path class="st0" d="M135.4,35v3.5c0,0,0,0.1-0.1,0.1h-0.9c0,0-0.1,0-0.1-0.1v-5.4c0-0.2,0.1-0.3,0.2-0.3c0.1-0.1,0.3,0,0.4,0.1
		l2.4,3l2.4-3c0.1-0.1,0.2-0.2,0.4-0.1c0.1,0.1,0.2,0.2,0.2,0.3v5.4c0,0,0,0.1-0.1,0.1h-0.6c-0.1,0-0.2,0-0.2-0.1
		c-0.1-0.1-0.1-0.1-0.1-0.2V35l-2,2.5c0,0,0,0,0,0c0,0,0,0,0,0L135.4,35z"/>
	<path class="st0" d="M145.7,33.1C145.8,33.1,145.8,33.1,145.7,33.1l0,1.1c0,0,0,0,0,0c0,0,0,0-0.1,0c-0.4-0.3-0.8-0.5-1.3-0.5
		c-0.5,0-1,0.2-1.4,0.6c-0.4,0.4-0.6,0.9-0.6,1.4c0,0.6,0.2,1,0.6,1.4c0.4,0.4,0.9,0.6,1.4,0.6c0.5,0,0.9-0.2,1.3-0.5c0,0,0,0,0.1,0
		c0,0,0,0,0,0v0.8c0,0.2-0.1,0.3-0.2,0.3c-0.4,0.2-0.8,0.2-1.2,0.2c-0.8,0-1.5-0.3-2.1-0.9c-0.6-0.6-0.9-1.3-0.9-2.1
		c0-0.8,0.3-1.5,0.9-2.1c0.6-0.6,1.3-0.9,2.1-0.9C144.8,32.7,145.3,32.9,145.7,33.1z"/>
</g>
</svg>
